<svg width="32" height="32" viewBox="0 0 32 32" fill="none" xmlns="http://www.w3.org/2000/svg">
<path d="M27.1434 10.081C28.0913 10.081 29.0178 9.80009 29.8059 9.2737C30.5941 8.74731 31.2083 7.99913 31.571 7.12378C31.9338 6.24843 32.0287 5.28521 31.8438 4.35594C31.6588 3.42667 31.2024 2.57308 30.5322 1.90311C29.8619 1.23315 29.008 0.776894 28.0784 0.592051C27.1487 0.407207 26.1851 0.502076 25.3094 0.864659C24.4337 1.22724 23.6853 1.84126 23.1587 2.62905C22.6321 3.41685 22.351 4.34305 22.351 5.29052C22.351 5.91964 22.4749 6.54259 22.7157 7.12383C22.9565 7.70506 23.3096 8.23317 23.7546 8.67802C24.1996 9.12287 24.7279 9.47574 25.3094 9.71647C25.8909 9.9572 26.5141 10.0811 27.1434 10.081ZM12.4486 31.6563C10.1383 31.6563 7.87974 30.9715 5.95872 29.6884C4.0377 28.4054 2.54045 26.5817 1.6563 24.448C0.77215 22.3143 0.540817 19.9665 0.991554 17.7014C1.44229 15.4363 2.55485 13.3557 4.18855 11.7226C5.82225 10.0896 7.9037 8.97745 10.1697 8.5269C12.4357 8.07634 14.7845 8.30759 16.919 9.19139C19.0535 10.0752 20.8779 11.5719 22.1615 13.4921C23.4451 15.4124 24.1302 17.67 24.1302 19.9795C24.1302 21.5129 23.8281 23.0314 23.2411 24.4481C22.654 25.8648 21.7936 27.1521 20.7088 28.2364C19.6241 29.3207 18.3363 30.1808 16.919 30.7676C15.5017 31.3544 13.9827 31.6564 12.4486 31.6563Z" fill="#7D00FF"/>
</svg>
